<svg xmlns="http://www.w3.org/2000/svg" width="48.505" height="46.485" viewBox="0 0 48.505 46.485">
  <path id="github-image" d="M24.253.5A24.042,24.042,0,0,0,0,24.332,23.872,23.872,0,0,0,16.583,46.944c1.213.224,1.657-.513,1.657-1.146,0-.566-.02-2.066-.03-4.052-6.746,1.437-8.169-3.2-8.169-3.2a6.353,6.353,0,0,0-2.7-3.486c-2.2-1.477.17-1.447.17-1.447a5.074,5.074,0,0,1,3.715,2.456c2.163,3.644,5.677,2.591,7.064,1.983a5.046,5.046,0,0,1,1.536-3.187C14.44,34.27,8.779,32.22,8.779,23.089a9.105,9.105,0,0,1,2.5-6.395,8.338,8.338,0,0,1,.212-6.308s2.031-.639,6.669,2.443a23.253,23.253,0,0,1,12.126,0c4.608-3.082,6.639-2.443,6.639-2.443a8.569,8.569,0,0,1,.243,6.308,9.142,9.142,0,0,1,2.486,6.395c0,9.155-5.669,11.17-11.065,11.756a5.655,5.655,0,0,1,1.637,4.41c0,3.189-.03,5.752-.03,6.526,0,.625.424,1.37,1.667,1.132A23.8,23.8,0,0,0,48.505,24.332,24.046,24.046,0,0,0,24.253.5Z" transform="translate(0 -0.5)" fill="#fff"/>
</svg>
