<svg xmlns="http://www.w3.org/2000/svg" width="311" height="143" viewBox="0 0 311 143">
  <g id="Group_9" data-name="Group 9" transform="translate(-53 -26)">
    <text id="Pomodoro_timer" data-name="Pomodoro 
timer" transform="translate(53 26)" fill="#fff" font-size="44" font-family="Montserrat-Thin, Montserrat" font-weight="200"><tspan x="0" y="43">Pomodoro </tspan><tspan x="0" y="97">timer</tspan></text>
    <g id="tomato" transform="translate(185 70.064)">
      <path id="Path_6" data-name="Path 6" d="M240.39,18.817a16.265,16.265,0,0,1,.126-4.086.378.378,0,0,0-.578-.372,7.521,7.521,0,0,0-3.3,4.364l1.882,2Z" transform="translate(-215.08 0)" fill="#f5f4f4"/>
      <path id="Path_7" data-name="Path 7" d="M171.977,17.509c-3.965-.779-6.635.307-8.457,1.9a.26.26,0,0,1-.42-.1,4.744,4.744,0,0,1,1.231-4.921.368.368,0,0,0-.184.051,7.492,7.492,0,0,0-3.243,4.182,9.7,9.7,0,0,0-7.41-1.113.31.31,0,0,0-.014.6,8.451,8.451,0,0,1,5.393,3.912H166.6a8.45,8.45,0,0,1,5.39-3.911A.311.311,0,0,0,171.977,17.509Z" transform="translate(-139.289 -0.081)" fill="#f5f4f4"/>
      <path id="Path_8" data-name="Path 8" d="M153.563,52.633a9.01,9.01,0,0,1,8.418,4.284l-2.822-.147a8.449,8.449,0,0,0-5.388-3.91A.289.289,0,0,1,153.563,52.633Z" transform="translate(-139.576 -34.826)" fill="#f5f4f4"/>
      <path id="Path_9" data-name="Path 9" d="M277.305,52.633a9.011,9.011,0,0,0-8.418,4.284l2.822-.147a8.449,8.449,0,0,1,5.388-3.91A.29.29,0,0,0,277.305,52.633Z" transform="translate(-244.395 -34.826)" fill="#f5f4f4"/>
      <path id="Path_10" data-name="Path 10" d="M30.456,93.152a17.944,17.944,0,0,0-3.788.006,31.061,31.061,0,0,1-6.7,0,17.944,17.944,0,0,0-3.788-.006A18.368,18.368,0,0,0,.03,110.425c-.61,10.659,7.983,19.488,23.288,19.488s23.9-8.83,23.288-19.488A18.368,18.368,0,0,0,30.456,93.152Z" transform="translate(0 -71.581)" fill="#f5f4f4"/>
      <path id="Path_11" data-name="Path 11" d="M36.107,124.682c-15.3,0-23.9-8.83-23.288-19.488a18.636,18.636,0,0,1,5.448-12.1,18.1,18.1,0,0,0-2.085.092A18.367,18.367,0,0,0,.031,110.46c-.611,10.659,7.983,19.488,23.288,19.488,7.511,0,13.4-2.13,17.385-5.556A36.072,36.072,0,0,1,36.107,124.682Z" transform="translate(-0.001 -71.616)" fill="#f5f4f4"/>
    </g>
  </g>
</svg>
