<svg id="pause" xmlns="http://www.w3.org/2000/svg" width="51.768" height="93.182" viewBox="0 0 51.768 93.182">
  <g id="Group_2" data-name="Group 2" transform="translate(0)">
    <g id="Group_1" data-name="Group 1" transform="translate(0)">
      <path id="Path_1" data-name="Path 1" d="M146.217,0l-2.27.047a5.143,5.143,0,0,0-5.142,5.1V88.155a5.258,5.258,0,0,0,5.338,5.027h.016l2.072-.014a4.948,4.948,0,0,0,4.951-5.062V5.1A4.983,4.983,0,0,0,146.217,0Z" transform="translate(-138.804)" fill="#f6ff72"/>
    </g>
  </g>
  <g id="Group_4" data-name="Group 4" transform="translate(39.395)">
    <g id="Group_3" data-name="Group 3">
      <path id="Path_2" data-name="Path 2" d="M296.63,0l-2.283.047a5.153,5.153,0,0,0-5.154,5.1V88.155a5.311,5.311,0,0,0,5.4,5.027h.016l2.042-.014a4.924,4.924,0,0,0,4.919-5.062V5.1A4.959,4.959,0,0,0,296.63,0Z" transform="translate(-289.192)" fill="#f6ff72"/>
    </g>
  </g>
</svg>
