<svg xmlns="http://www.w3.org/2000/svg" width="68.126" height="64.321" viewBox="0 0 68.126 64.321">
  <g id="tomato-tablet" transform="translate(0 -14.3)">
    <path id="Path_6" data-name="Path 6" d="M242.12,20.9a23.759,23.759,0,0,1,.184-5.969.553.553,0,0,0-.845-.543,10.986,10.986,0,0,0-4.825,6.375l2.749,2.919Z" transform="translate(-205.148 0)" fill="#f5f4f4"/>
    <path id="Path_7" data-name="Path 7" d="M180.606,18.946c-5.792-1.138-9.693.448-12.353,2.78a.38.38,0,0,1-.614-.15,6.929,6.929,0,0,1,1.8-7.188.537.537,0,0,0-.269.075,10.944,10.944,0,0,0-4.737,6.109c-2.569-1.652-6.053-2.564-10.824-1.625a.452.452,0,0,0-.021.881c2.283.606,5.938,2.107,7.877,5.714h11.294c1.938-3.605,5.591-5.107,7.873-5.713A.454.454,0,0,0,180.606,18.946Z" transform="translate(-132.857 -0.077)" fill="#f5f4f4"/>
    <path id="Path_8" data-name="Path 8" d="M153.563,52.64a13.162,13.162,0,0,1,12.3,6.258l-4.123-.215c-1.937-3.6-5.587-5.105-7.87-5.712A.423.423,0,0,1,153.563,52.64Z" transform="translate(-133.13 -33.218)" fill="#f5f4f4"/>
    <path id="Path_9" data-name="Path 9" d="M281.184,52.64a13.162,13.162,0,0,0-12.3,6.258l4.123-.215c1.937-3.6,5.587-5.105,7.87-5.712A.423.423,0,0,0,281.184,52.64Z" transform="translate(-233.109 -33.218)" fill="#f5f4f4"/>
    <path id="Path_10" data-name="Path 10" d="M44.489,93.2a26.213,26.213,0,0,0-5.534.009,45.374,45.374,0,0,1-9.785,0,26.213,26.213,0,0,0-5.534-.009C10.878,94.52.793,105.359.044,118.428-.848,134,11.706,146.9,34.063,146.9s34.91-12.9,34.019-28.468C67.333,105.359,57.248,94.52,44.489,93.2Z" transform="translate(0 -68.276)" fill="#f5f4f4"/>
    <path id="Path_11" data-name="Path 11" d="M52.743,139.238c-22.357,0-34.91-12.9-34.019-28.468a27.223,27.223,0,0,1,7.958-17.675,26.436,26.436,0,0,0-3.045.135C10.878,94.553.794,105.392.045,118.462c-.892,15.57,11.662,28.468,34.019,28.468,10.972,0,19.576-3.111,25.395-8.115A52.692,52.692,0,0,1,52.743,139.238Z" transform="translate(-0.001 -68.309)" fill="#f5f4f4"/>
  </g>
</svg>
